<svg id="happy" xmlns="http://www.w3.org/2000/svg" width="166.675" height="166.675" viewBox="0 0 166.675 166.675">
  <path id="Path_1" data-name="Path 1" d="M99.338,16a83.338,83.338,0,1,0,83.338,83.338A83.583,83.583,0,0,0,99.338,16Zm0,156.871a73.533,73.533,0,1,1,73.533-73.533A73.749,73.749,0,0,1,99.338,172.871Z" transform="translate(-16 -16)" fill="#89223a"/>
  <path id="Path_2" data-name="Path 2" d="M37.471,63.384a4.853,4.853,0,1,1,6.863-6.863,36.987,36.987,0,0,0,51.963,0,4.739,4.739,0,0,1,6.863,0,4.739,4.739,0,0,1,0,6.863A46.452,46.452,0,0,1,37.471,63.384Z" transform="translate(13.022 45.568)" fill="#89223a"/>
  <path id="Path_7" data-name="Path 7" d="M40.58,54.591a1.274,1.274,0,0,0,2.124,0,32.649,32.649,0,0,1,5.159-5.31c3.641-2.883,9.255-5.765,7.283-12.592-1.517-5.31-8.648-7.737-13.5-3.034-4.855-4.7-11.986-2.276-13.5,3.034-1.972,6.827,3.641,9.861,7.283,12.592A33.3,33.3,0,0,1,40.58,54.591Z" transform="translate(19.205 20.806)" fill="#89223a"/>
  <path id="Path_8" data-name="Path 8" d="M67.844,33.555c-4.856-4.7-11.987-2.276-13.5,3.035-1.973,6.828,3.642,9.863,7.283,12.594a32.654,32.654,0,0,1,5.159,5.311,1.274,1.274,0,0,0,2.124,0,32.654,32.654,0,0,1,5.159-5.311c3.642-2.883,9.256-5.766,7.283-12.594C79.831,31.279,72.7,28.851,67.844,33.555Z" transform="translate(38.513 20.347)" fill="#89223a"/>
</svg>
