<svg xmlns="http://www.w3.org/2000/svg" width="207.119" height="63.742" viewBox="0 0 207.119 63.742">
  <g id="Group_7" data-name="Group 7" transform="translate(-1656 -61.129)">
    <path id="Path_39" data-name="Path 39" d="M13.26-16.848h3.588V0H13.26V-6.994H5.434V0H1.846V-16.848H5.434v6.734H13.26Zm16.614,0L35.932-.208V0H32.006L30.654-4.03h-6.24L23.088,0H19.214V-.208l6.058-16.64ZM25.4-6.994h4.264l-2.158-6.422Zm18.8-9.854a8.676,8.676,0,0,1,3.718.7,4.97,4.97,0,0,1,2.21,1.911,5.312,5.312,0,0,1,.728,2.8,5.867,5.867,0,0,1-.763,3,5.157,5.157,0,0,1-2.3,2.054,8.586,8.586,0,0,1-3.748.741H41.886V0H38.3V-16.848Zm-.51,8.242a4.326,4.326,0,0,0,2.494-.611,2.4,2.4,0,0,0,.876-2.119,2.319,2.319,0,0,0-.783-1.911,3.379,3.379,0,0,0-2.189-.637h-2.2v5.278Zm15.668-8.242a8.676,8.676,0,0,1,3.718.7,4.97,4.97,0,0,1,2.21,1.911,5.312,5.312,0,0,1,.728,2.8,5.867,5.867,0,0,1-.763,3,5.157,5.157,0,0,1-2.3,2.054,8.586,8.586,0,0,1-3.748.741H57.044V0H53.456V-16.848Zm-.51,8.242a4.326,4.326,0,0,0,2.494-.611,2.4,2.4,0,0,0,.876-2.119,2.319,2.319,0,0,0-.783-1.911,3.379,3.379,0,0,0-2.189-.637h-2.2v5.278ZM68.718,0V-16.848h3.588V0ZM91.156-16.848V0h-4l-5.3-7.852q-.678-1.04-1.148-1.807a16.746,16.746,0,0,1-.913-1.729V0H76.206V-16.848h3.952l5.766,8.632q.1.156.47.715t.665,1.053a8.652,8.652,0,0,1,.509.962V-16.848ZM98.618-3.016h7.8V0H95.03V-16.848h11.258v2.99h-7.67v3.8h6.63L104.826-7.1H98.618ZM114.842.364a10.805,10.805,0,0,1-6.63-2.028l1.664-2.574A8.82,8.82,0,0,0,114.608-2.7a4.835,4.835,0,0,0,2.327-.468,1.511,1.511,0,0,0,.845-1.4,1.576,1.576,0,0,0-.273-.949,2.667,2.667,0,0,0-.962-.728q-.689-.351-2.067-.9l-.6-.234A19.015,19.015,0,0,1,111.2-8.632a4.722,4.722,0,0,1-1.612-1.534,4.318,4.318,0,0,1-.6-2.366,3.892,3.892,0,0,1,.91-2.639,5.316,5.316,0,0,1,2.34-1.547,9.251,9.251,0,0,1,3.042-.494,10.092,10.092,0,0,1,3,.481,11.409,11.409,0,0,1,2.951,1.417l-1.68,2.548a12.162,12.162,0,0,0-2.2-1.092,6.16,6.16,0,0,0-2.067-.338,3.435,3.435,0,0,0-1.873.416,1.279,1.279,0,0,0-.633,1.118,1.3,1.3,0,0,0,.258.793,2.7,2.7,0,0,0,.931.7,17.594,17.594,0,0,0,1.938.819l.569.208a23.147,23.147,0,0,1,2.675,1.17,4.849,4.849,0,0,1,1.719,1.56,4.538,4.538,0,0,1,.7,2.626,4.551,4.551,0,0,1-.884,2.847,5.282,5.282,0,0,1-2.4,1.729A9.735,9.735,0,0,1,114.842.364Zm14.9,0a10.805,10.805,0,0,1-6.63-2.028l1.664-2.574A8.82,8.82,0,0,0,129.506-2.7a4.835,4.835,0,0,0,2.327-.468,1.511,1.511,0,0,0,.845-1.4,1.576,1.576,0,0,0-.273-.949,2.667,2.667,0,0,0-.962-.728q-.689-.351-2.067-.9l-.6-.234A19.015,19.015,0,0,1,126.1-8.632a4.722,4.722,0,0,1-1.612-1.534,4.318,4.318,0,0,1-.6-2.366,3.892,3.892,0,0,1,.91-2.639,5.316,5.316,0,0,1,2.34-1.547,9.251,9.251,0,0,1,3.042-.494,10.092,10.092,0,0,1,3,.481,11.408,11.408,0,0,1,2.951,1.417l-1.68,2.548a12.163,12.163,0,0,0-2.2-1.092,6.159,6.159,0,0,0-2.067-.338,3.435,3.435,0,0,0-1.873.416,1.279,1.279,0,0,0-.633,1.118,1.3,1.3,0,0,0,.258.793,2.7,2.7,0,0,0,.931.7,17.594,17.594,0,0,0,1.938.819l.569.208a23.147,23.147,0,0,1,2.675,1.17,4.849,4.849,0,0,1,1.719,1.56,4.538,4.538,0,0,1,.7,2.626,4.551,4.551,0,0,1-.884,2.847,5.282,5.282,0,0,1-2.405,1.729A9.735,9.735,0,0,1,129.74.364ZM19.24,13.152V30H16.9V17.052a18.754,18.754,0,0,1-1.014,2.34L11.83,27.27H9.516L5.538,19.392q-.338-.65-.637-1.261T4.42,17.078V30H2.132V13.152h2.73l3.8,7.436a38.429,38.429,0,0,1,2.054,4.55,19.355,19.355,0,0,1,.793-2q.507-1.118,1.261-2.548l3.822-7.436Zm6.838,14.82h8.268V30H23.686V13.152h10.53V15.18H26.078v5.252H33.2l-.26,1.976H26.078Zm24.258-14.82v2.08H44.512V30H42.12V15.232H36.27v-2.08Zm5.174,14.82h8.268V30H53.118V13.152h10.53V15.18H55.51v5.252h7.124l-.26,1.976H55.51ZM79.9,29.844V30H77.142L72.28,23.422h-2.5V30H67.392V13.152h5.486a8.011,8.011,0,0,1,3.341.624,4.552,4.552,0,0,1,2.054,1.742,4.855,4.855,0,0,1,.689,2.6,5.336,5.336,0,0,1-.455,2.21,4.757,4.757,0,0,1-1.365,1.755,5.726,5.726,0,0,1-2.262,1.079Zm-10.114-8.4h2.73a4.472,4.472,0,0,0,2.951-.845,2.942,2.942,0,0,0,1-2.379,2.8,2.8,0,0,0-.923-2.262,4.113,4.113,0,0,0-2.717-.78H69.784Z" transform="translate(1726.645 84)" fill="#830823"/>
    <g id="sad" transform="translate(1656 61.129)">
      <path id="Path_1" data-name="Path 1" d="M47.871,16A31.871,31.871,0,1,0,79.742,47.871,31.965,31.965,0,0,0,47.871,16Zm0,59.992A28.121,28.121,0,1,1,75.992,47.871,28.2,28.2,0,0,1,47.871,75.992Z" transform="translate(-16 -16)" fill="#830823"/>
      <path id="Path_2" data-name="Path 2" d="M36.562,58.237a1.856,1.856,0,0,1,2.625-2.625,14.145,14.145,0,0,0,19.872,0,1.812,1.812,0,0,1,2.625,0,1.812,1.812,0,0,1,0,2.625A17.765,17.765,0,0,1,36.562,58.237Z" transform="translate(-17.252 -16.571)" fill="#830823"/>
      <path id="Path_7" data-name="Path 7" d="M32.645,40.113a.487.487,0,0,0,.812,0,12.486,12.486,0,0,1,1.973-2.031c1.393-1.1,3.539-2.2,2.785-4.816a3.074,3.074,0,0,0-5.164-1.16,3.074,3.074,0,0,0-5.164,1.16c-.754,2.611,1.393,3.771,2.785,4.816A12.735,12.735,0,0,1,32.645,40.113Z" transform="translate(-9.781 -11.279)" fill="#830823"/>
      <path id="Path_8" data-name="Path 8" d="M59.252,32.006a3.075,3.075,0,0,0-5.165,1.161c-.754,2.611,1.393,3.772,2.785,4.816a12.488,12.488,0,0,1,1.973,2.031.487.487,0,0,0,.812,0,12.488,12.488,0,0,1,1.973-2.031c1.393-1.1,3.54-2.205,2.785-4.816A3.075,3.075,0,0,0,59.252,32.006Z" transform="translate(-18.577 -11.393)" fill="#830823"/>
    </g>
  </g>
</svg>
