<svg xmlns="http://www.w3.org/2000/svg" width="65" height="65" viewBox="0 0 65 65">
  <g id="hm_launcher" transform="translate(-10 -1015)">
    <rect id="Image_2" data-name="Image 2" width="65" height="65" transform="translate(10 1015)" fill="#b81f40"/>
    <g id="Group_12" data-name="Group 12" transform="translate(91 70)">
      <g id="happy" transform="translate(-66 960)">
        <path id="Path_1" data-name="Path 1" d="M33.338,16A17.338,17.338,0,1,0,50.675,33.338,17.389,17.389,0,0,0,33.338,16Zm0,32.635a15.3,15.3,0,1,1,15.3-15.3A15.343,15.343,0,0,1,33.338,48.635Z" transform="translate(-16 -16)" fill="#fff"/>
        <path id="Path_2" data-name="Path 2" d="M36.306,56.784a1.01,1.01,0,1,1,1.428-1.428,7.7,7.7,0,0,0,10.81,0,.986.986,0,0,1,1.428,0,.986.986,0,0,1,0,1.428A9.664,9.664,0,0,1,36.306,56.784Z" transform="translate(-25.801 -34.117)" fill="#fff"/>
        <path id="Path_7" data-name="Path 7" d="M30.4,36.025a.265.265,0,0,0,.442,0,6.792,6.792,0,0,1,1.073-1.1c.758-.6,1.925-1.2,1.515-2.62a1.672,1.672,0,0,0-2.809-.631,1.672,1.672,0,0,0-2.809.631c-.41,1.42.758,2.052,1.515,2.62A6.927,6.927,0,0,1,30.4,36.025Z" transform="translate(-17.966 -20.339)" fill="#fff"/>
        <path id="Path_8" data-name="Path 8" d="M56.825,31.569a1.673,1.673,0,0,0-2.809.631c-.41,1.421.758,2.052,1.515,2.62a6.793,6.793,0,0,1,1.073,1.1.265.265,0,0,0,.442,0,6.793,6.793,0,0,1,1.073-1.1c.758-.6,1.926-1.2,1.515-2.62A1.673,1.673,0,0,0,56.825,31.569Z" transform="translate(-34.699 -20.355)" fill="#fff"/>
      </g>
    </g>
  </g>
</svg>
