<svg id="sad" xmlns="http://www.w3.org/2000/svg" width="166.675" height="166.675" viewBox="0 0 166.675 166.675">
  <path id="Path_1" data-name="Path 1" d="M99.338,16a83.338,83.338,0,1,0,83.338,83.338A83.583,83.583,0,0,0,99.338,16Zm0,156.871a73.533,73.533,0,1,1,73.533-73.533A73.749,73.749,0,0,1,99.338,172.871Z" transform="translate(-16 -16)" fill="#89223a"/>
  <path id="Path_2" data-name="Path 2" d="M37.471,68.654a4.853,4.853,0,0,0,6.863,6.863,36.987,36.987,0,0,1,51.963,0,4.739,4.739,0,0,0,6.863,0,4.739,4.739,0,0,0,0-6.863A46.452,46.452,0,0,0,37.471,68.654Z" transform="translate(13.022 40.666)" fill="#89223a"/>
  <circle id="Ellipse_2" data-name="Ellipse 2" cx="12.203" cy="12.203" r="12.203" transform="translate(46.519 51.212)" fill="#89223a"/>
  <circle id="Ellipse_3" data-name="Ellipse 3" cx="12.203" cy="12.203" r="12.203" transform="translate(95.332 51.212)" fill="#89223a"/>
</svg>
